<svg width="35" height="40" viewBox="0 0 35 40" version="1.1" xmlns="http://www.w3.org/2000/svg" xmlns:xlink="http://www.w3.org/1999/xlink">
    <title>Vector</title>
    <desc>Created using Figma</desc>
    <g id="Canvas" transform="translate(680 486)">
        <g id="Vector">
            <use xlink:href="#path0_fill" transform="translate(-680 -486)" fill="#FFFFFF"/>
        </g>
    </g>
    <defs>
        <path id="path0_fill" d="M 34.3849 21.9004L 21.8163 13.4093L 22.4048 5.33848C 22.615 2.43805 20.3451 0 17.4446 0C 14.5442 0 12.3163 2.43805 12.5265 5.33848L 13.115 13.4093L 0.504423 21.9424C 0.210176 22.1526 0 22.4889 0 22.8672L 0 25.1791C 0 25.9358 0.7146 26.4822 1.47124 26.3141L 6.4314 25.011L 6.4314 26.3982C 6.4314 26.7765 6.72565 27.0707 7.10396 27.0707L 8.82741 27.0707C 9.20573 27.0707 9.49998 26.7765 9.49998 26.3982L 9.49998 24.1703L 13.8716 23.0353L 14.6283 33.376L 10.0885 35.4778C 9.79422 35.6039 9.62608 35.8981 9.62608 36.1924L 9.62608 39.2189C 9.62608 39.7233 10.1305 40.1017 10.6349 39.9756L 17.4446 37.9579L 24.2964 39.8915C 24.8008 40.0176 25.3052 39.6393 25.3052 39.1349L 25.3052 36.1083C 25.3052 35.8141 25.1371 35.5198 24.8429 35.3937L 20.3451 33.334L 21.1017 22.9933L 25.4313 24.1703L 25.4313 26.3561C 25.4313 26.7344 25.7256 27.0287 26.1039 27.0287L 27.8274 27.0287C 28.2057 27.0287 28.4999 26.7344 28.4999 26.3561L 28.4999 24.969L 33.4181 26.3141C 34.1327 26.5243 34.8893 25.9358 34.8893 25.1791L 34.8893 22.8672C 34.8893 22.4889 34.6791 22.1526 34.3849 21.9004Z"/>
    </defs>
</svg>
